# xmcd
#
# Track frame offsets:
#   150
#   13754
#   27209
#   38519
#   50364
#   61715
#   71813
#   83490
#   96621
#   108686
#   120805
#   132858
#   144283
#   154978
#   166765
#   176274
#   188724
#   202315
#   212583
#   225539
#   236433
#   248020
#   259454
#   271508
#   282004
#
# Disc length: 3910 seconds
#
# Revision: 2
# Processed by: cddbd v1.5.1PL0 Copyright (c) Steve Scherf et al.
# Submitted via: Media_Universe 3.0
#
DISCID=4d0f4419
DTITLE=Various Artist - Country Boogie 1945-1951 - Les Triomphes De La Country Music
DYEAR=2002
DGENRE=Country
TTITLE0=Porky Freeman - Boogie-Woogie Boy
TTITLE1=Arthur Smith - Guitar Boogie
TTITLE2=T. Texas Tyler - T. Texas Boogie
TTITLE3=Hank Penny - Wildcat Mama
TTITLE4=Pee Wee King - Ten Gallon Boogie
TTITLE5=Johnny Tyler - Oakie Boogie
TTITLE6=Red Foley - Tennessee Saturday Night
TTITLE7=Curley Williams - Georgia Boogie
TTITLE8=Al Dexter - Saturday Night Boogie
TTITLE9=Hawkshaw Hawkins - Dog House Boogie
TTITLE10=Rosalie Allen - Yodelin' Boogie
TTITLE11=Billiy Briggs - Pretty Baby Boogie
TTITLE12=Tennessee Ernie Ford - Milk'Em In The Morning The Blues
TTITLE13=Curley Williams - Fiddlin' Boogie
TTITLE14=Tennesse Ernie Ford - Anticipation Blues
TTITLE15=Red Foley - Chattanoogie Shoe Shine Boy
TTITLE16=Red Foley - Birminham Bounce
TTITLE17=Eddie Miller - Motel Time
TTITLE18=Ramblin' Jimmie Dolan - It Had To Come Someday
TTITLE19=Johnny Hicks - Hamburger Hop
TTITLE20=Tennesse Ernie Ford - Shotgun Boogie
TTITLE21=Ramblin' Jimmie Dolan - Hot Rod Race
TTITLE22=Hawkshaw Hawkins - Rattlesnakin' Daddy
TTITLE23=Gene O'Quinn - Texas Boogie
TTITLE24=Bob Newman - Hangover Boogie
EXTD=YEAR: 2002
EXTT0=
EXTT1=
EXTT2=
EXTT3=
EXTT4=
EXTT5=
EXTT6=
EXTT7=
EXTT8=
EXTT9=
EXTT10=
EXTT11=
EXTT12=
EXTT13=
EXTT14=
EXTT15=
EXTT16=
EXTT17=
EXTT18=
EXTT19=
EXTT20=
EXTT21=
EXTT22=
EXTT23=
EXTT24=
PLAYORDER=
